#!OML:ASF F:\twosubjects\two\Thursday\Session 1\Rory.ASF
:FULLY-SPECIFIED
:DEGREES
237
root -3.37586 17.8579 -0.902436 -367.419 27.0191 -358.596
lowerback 0.0272304 0.831267 -4.85146
upperback 2.55873 1.34611 -5.31163
thorax 2.64732 0.650422 -2.73288
lowerneck -16.7156 2.75101 2.75026
upperneck 33.7308 4.03956 -1.3684
head 14.4949 1.99305 -0.322289
rclavicle 3.02153e-014 4.45278e-014
rhumerus -4.26254 35.5346 -69.1546
rradius 112.561
rwrist -20.3349
rhand -14.5908 -6.47504
rfingers 7.12502
rthumb 11.5594 -36.1363
lclavicle 3.02153e-014 4.45278e-014
lhumerus -16.0397 -31.857 94.4531
lradius 112.231
lwrist 67.235
lhand -16.8508 69.3697
lfingers 7.12502
lthumb 9.37932 -99.1411
rfemur -11.072 2.4171 21.2808
rtibia 38.9335
rfoot -19.3706 -14.7476
rtoes 14.4238
lfemur -15.3292 7.09509 -12.7325
ltibia 23.2933
lfoot 0.596701 21.4231
ltoes -6.7064
238
root -3.36938 17.8653 -0.922112 -367.179 26.6769 -357.704
lowerback -0.114544 0.81243 -5.66329
upperback 2.54332 1.35362 -5.5247
thorax 2.70276 0.639267 -2.50088
lowerneck -16.761 2.90869 2.85278
upperneck 33.7996 4.31574 -1.57066
head 14.5536 2.09442 -0.373932
rclavicle -3.01159e-014 -1.11319e-014
rhumerus -4.13941 35.0686 -68.7193
rradius 112.952
rwrist -20.602
rhand -14.9593 -6.3789
rfingers 7.12502
rthumb 11.204 -36.0597
lclavicle -3.01159e-014 -1.11319e-014
lhumerus -15.6943 -32.1822 94.5147
lradius 112.556
lwrist 66.9172
lhand -17.2157 70.6618
lfingers 7.12502
lthumb 9.02717 -100.449
rfemur -11.0032 2.53666 20.3639
rtibia 38.9664
rfoot -19.2594 -14.455
rtoes 14.0692
lfemur -14.9223 7.02419 -13.4087
ltibia 23.2221
lfoot 0.655126 20.7616
ltoes -9.25046
239
root -3.36332 17.8741 -0.943879 -367.099 26.321 -357.031
lowerback -0.1085 0.803296 -6.32472
upperback 2.44444 1.34844 -5.67844
thorax 2.58921 0.627416 -2.29424
lowerneck -16.5271 3.05402 3.07802
upperneck 33.7647 4.61465 -1.98039
head 14.5141 2.19637 -0.532743
rclavicle -6.65929e-015 0
rhumerus -4.12676 34.6354 -68.2876
rradius 113.297
rwrist -20.8843
rhand -14.9185 -5.75788
rfingers 7.12502
rthumb 11.2433 -35.4366
lclavicle -6.65929e-015 0
lhumerus -15.654 -32.5025 94.6484
lradius 112.871
lwrist 66.8394
lhand -17.2015 71.1855
lfingers 7.12502
lthumb 9.04091 -100.972
rfemur -10.8278 2.58147 19.654
rtibia 38.913
rfoot -19.034 -14.2144
rtoes 13.5196
lfemur -14.5616 7.76062 -13.9119
ltibia 23.3212
lfoot 0.593816 19.5328
ltoes -10.7491
240
root -3.35491 17.881 -0.969634 -367.136 25.8326 -356.751
lowerback -0.0437941 0.771823 -6.52869
upperback 2.22059 1.2845 -5.78028
thorax 2.31939 0.599373 -2.28953
lowerneck -15.9869 3.1999 3.34197
upperneck 33.6462 4.88452 -2.3235
head 14.3678 2.30534 -0.681378
rclavicle 1.99779e-014 -8.11041e-014
rhumerus -4.40629 34.3121 -68.1178
rradius 113.806
rwrist -20.9891
rhand -14.0633 -5.68175
rfingers 7.12502
rthumb 12.0681 -35.3138
lclavicle 1.99779e-014 -8.11041e-014
lhumerus -15.7607 -32.9049 94.7206
lradius 113.287
lwrist 66.7003
lhand -16.9315 71.1409
lfingers 7.12502
lthumb 9.30143 -100.916
rfemur -10.6407 2.74852 19.3492
rtibia 38.687
rfoot -18.6974 -14.0513
rtoes 12.8961
lfemur -14.4471 8.48298 -14.0262
ltibia 23.7972
lfoot 0.727255 18.3363
ltoes -14.0565
241
root -3.35745 17.8749 -0.979981 -368.185 24.9953 -358.075
lowerback 0.197319 0.754489 -5.44577
upperback 2.38527 1.22277 -5.43009
thorax 2.36275 0.581154 -2.52997
lowerneck -16.4834 3.46504 3.54313
upperneck 33.7717 5.26186 -2.50058
head 14.5664 2.45752 -0.714777
rclavicle -2.69353e-014 7.95139e-015
rhumerus -3.92699 33.8811 -67.5624
rradius 114.335
rwrist -21.3548
rhand -13.1894 -5.96661
rfingers 7.12502
rthumb 12.9107 -35.5472
lclavicle -2.69353e-014 7.95139e-015
lhumerus -15.0663 -33.3128 94.4598
lradius 113.588
lwrist 66.1898
lhand -17.1323 71.3052
lfingers 7.12502
lthumb 9.10766 -101.089
rfemur -10.0704 3.50295 20.9066
rtibia 38.3916
rfoot -18.3194 -14.4419
rtoes 11.9318
lfemur -14.0355 8.84124 -12.2889
ltibia 24.3485
lfoot 0.641012 17.565
ltoes -16.5567
